<svg xmlns="http://www.w3.org/2000/svg">
    <defs>
        <symbol id="copy" viewBox="0 0 24 24">
            <path
                d="M16 2C16 1.44772 15.5523 1 15 1H5L4.82373 1.00509C3.24892 1.09634 2 2.40232 2 4V16L2.00673 16.1166C2.06449 16.614 2.48716 17 3 17C3.55228 17 4 16.5523 4 16V4L4.00673 3.88338C4.06449 3.38604 4.48716 3 5 3H15L15.1166 2.99327C15.614 2.93551 16 2.51284 16 2Z"
                fill="currentColor" />
            <path
                d="M20 5C21.1046 5 22 5.89543 22 7V21C22 22.1046 21.1046 23 20 23H8C6.89543 23 6 22.1046 6 21V7C6 5.89543 6.89543 5 8 5H20ZM20 8C20 7.44772 19.5523 7 19 7H9C8.44771 7 8 7.44772 8 8V20C8 20.5523 8.44771 21 9 21H19C19.5523 21 20 20.5523 20 20V8Z"
                fill="currentColor" />
        </symbol>

        <symbol id="search" viewBox="0 0 6.3499999 6.3500002">
            <g>
                <g id="layer1" transform="translate(0 -290.65)">
                    <path
                        d="m2.8944091 291.16099c-1.3119941 0-2.38073328 1.06874-2.38073328 2.38074 0 1.31199 1.06873918 2.3828 2.38073328 2.3828.5603925 0 1.0757805-.19638 1.4831137-.52245l.9916707.99115a.26516505.26516505 0 0 0 .375171-.37465l-.9916708-.99167c.3263411-.40796.5229654-.92414.5229654-1.48518 0-1.312-1.0692559-2.38074-2.38125-2.38074zm0 .52917c1.0260113 0 1.8515666.82556 1.8515666 1.85157s-.8255553 1.85363-1.8515666 1.85363-1.8515666-.82762-1.8515666-1.85363.8255553-1.85157 1.8515666-1.85157z"
                        font-variant-ligatures="normal" font-variant-position="normal"
                        font-variant-caps="normal" font-variant-numeric="normal"
                        font-variant-alternates="normal" font-feature-settings="normal"
                        text-indent="0" text-align="start" text-decoration-line="none"
                        text-decoration-style="solid" text-decoration-color="rgb(0,0,0)"
                        text-transform="none" text-orientation="mixed" white-space="normal"
                        shape-padding="0" isolation="auto" mix-blend-mode="normal"
                        solid-color="rgb(0,0,0)" solid-opacity="1" vector-effect="none"
                        paint-order="stroke fill markers" fill="currentColor"></path>
                </g>
            </g>
        </symbol>

        <symbol id="close" viewBox="0 0 320.591 320.591">
            <g>
                <path
                    d="M30.391 318.583a30.37 30.37 0 0 1-21.56-7.288c-11.774-11.844-11.774-30.973 0-42.817L266.643 10.665c12.246-11.459 31.462-10.822 42.921 1.424 10.362 11.074 10.966 28.095 1.414 39.875L51.647 311.295a30.366 30.366 0 0 1-21.256 7.288z"
                    fill="currentColor"></path>
                <path
                    d="M287.9 318.583a30.37 30.37 0 0 1-21.257-8.806L8.83 51.963C-2.078 39.225-.595 20.055 12.143 9.146c11.369-9.736 28.136-9.736 39.504 0l259.331 257.813c12.243 11.462 12.876 30.679 1.414 42.922-.456.487-.927.958-1.414 1.414a30.368 30.368 0 0 1-23.078 7.288z"
                    fill="currentColor"></path>
            </g>
        </symbol>

        <symbol id="check" viewBox="0 0 511.985 511.985">
            <g>
                <path
                    d="M500.088 83.681c-15.841-15.862-41.564-15.852-57.426 0L184.205 342.148 69.332 227.276c-15.862-15.862-41.574-15.862-57.436 0-15.862 15.862-15.862 41.574 0 57.436l143.585 143.585c7.926 7.926 18.319 11.899 28.713 11.899 10.394 0 20.797-3.963 28.723-11.899l287.171-287.181c15.862-15.851 15.862-41.574 0-57.435z"
                    fill="currentColor"></path>
            </g>
        </symbol>

        <symbol id="attention" viewBox="0 0 486.463 486.463">
            <g>
                <path
                    d="M243.225 333.382c-13.6 0-25 11.4-25 25s11.4 25 25 25c13.1 0 25-11.4 24.4-24.4.6-14.3-10.7-25.6-24.4-25.6z"
                    fill="currentColor"></path>
                <path
                    d="M474.625 421.982c15.7-27.1 15.8-59.4.2-86.4l-156.6-271.2c-15.5-27.3-43.5-43.5-74.9-43.5s-59.4 16.3-74.9 43.4l-156.8 271.5c-15.6 27.3-15.5 59.8.3 86.9 15.6 26.8 43.5 42.9 74.7 42.9h312.8c31.3 0 59.4-16.3 75.2-43.6zm-34-19.6c-8.7 15-24.1 23.9-41.3 23.9h-312.8c-17 0-32.3-8.7-40.8-23.4-8.6-14.9-8.7-32.7-.1-47.7l156.8-271.4c8.5-14.9 23.7-23.7 40.9-23.7 17.1 0 32.4 8.9 40.9 23.8l156.7 271.4c8.4 14.6 8.3 32.2-.3 47.1z"
                    fill="currentColor"></path>
                <path
                    d="M237.025 157.882c-11.9 3.4-19.3 14.2-19.3 27.3.6 7.9 1.1 15.9 1.7 23.8 1.7 30.1 3.4 59.6 5.1 89.7.6 10.2 8.5 17.6 18.7 17.6s18.2-7.9 18.7-18.2c0-6.2 0-11.9.6-18.2 1.1-19.3 2.3-38.6 3.4-57.9.6-12.5 1.7-25 2.3-37.5 0-4.5-.6-8.5-2.3-12.5-5.1-11.2-17-16.9-28.9-14.1z"
                    fill="currentColor"></path>
            </g>
        </symbol>

        <symbol id="info" viewBox="0 0 488.9 488.9">
            <g>
                <path
                    d="M239.15 0c31.9 0 57.7 25.8 57.7 57.7s-25.8 57.7-57.7 57.7-57.7-25.8-57.7-57.7S207.25 0 239.15 0zm52.5 151.6h-97.7c-19 0-34.3 15.4-34.3 34.3 0 19 15.4 34.3 34.3 34.3h3.4v200h-37.7v68.7h169.6v-68.7h-37.5V151.6h-.1z"
                    fill="currentColor"></path>
            </g>
        </symbol>
    </defs>
</svg>